# xmcd CD database file
#
# Track frame offsets:
#	150
#	3929
#	21936
#	41358
#	59683
#	75695
#	94979
#	112294
#	134176
#	154610
#	170040
#
# Disc length: 2502 seconds
#
# Revision: 2
# Processed by: cddbd v1.5.2PL0 Copyright (c) Steve Scherf et al.
# Submitted via: CDex 1.70beta2
#
DISCID=9709c40b
DTITLE=徐懷鈺 - 天使
DYEAR=1900
DGENRE=
TTITLE0=衣櫥遊行
TTITLE1=Call Me
TTITLE2=I Can't Cry
TTITLE3=等不及
TTITLE4=天使
TTITLE5=友情卡片
TTITLE6=冒險氣球
TTITLE7=他忘了回來
TTITLE8=失戀布丁
TTITLE9=Give Me Five
TTITLE10=Perfect Life
EXTD=
EXTT0=
EXTT1=
EXTT2=
EXTT3=
EXTT4=
EXTT5=
EXTT6=
EXTT7=
EXTT8=
EXTT9=
EXTT10=
PLAYORDER=
